<svg width="20" height="20" viewBox="0 0 20 20" fill="none" xmlns="http://www.w3.org/2000/svg">
<path d="M10.0001 8.44711L12.3071 7.5243L6.59417 5.23912L4.62449 6.02699C4.52339 6.06743 4.4304 6.12126 4.34724 6.18596L10.0001 8.44711ZM3.93323 6.84076C3.91551 6.92081 3.90625 7.00356 3.90625 7.08785V12.9119C3.90625 13.3791 4.1907 13.7992 4.62449 13.9728L9.00987 15.7269C9.20737 15.8059 9.41197 15.8604 9.61925 15.8903V9.11517L3.93323 6.84076ZM10.381 15.8902C10.5882 15.8603 10.7927 15.8059 10.9901 15.7269L15.3755 13.9728C15.8093 13.7992 16.0938 13.3791 16.0938 12.9119V7.08784C16.0938 7.00359 16.0845 6.92086 16.0668 6.84084L10.381 9.11517V15.8902ZM15.6528 6.18602L13.3326 7.11411L7.61966 4.82892L9.00987 4.27284C9.64547 4.01859 10.3545 4.01859 10.9901 4.27284L15.3755 6.02699C15.4766 6.06744 15.5697 6.12129 15.6528 6.18602Z" fill="#666666"/>
</svg>
