<svg width="20" height="20" viewBox="0 0 20 20" fill="none" xmlns="http://www.w3.org/2000/svg">
<path d="M9.99999 2.5C10.4602 2.5 10.8333 2.8731 10.8333 3.33333C10.8333 3.76069 10.5116 4.11292 10.0972 4.16106L9.99999 4.16667H5.83333C5.40597 4.16667 5.05374 4.48837 5.0056 4.90282L4.99999 5V15C4.99999 15.4274 5.3217 15.7796 5.73614 15.8277L5.83333 15.8333H9.58333C10.0436 15.8333 10.4167 16.2064 10.4167 16.6667C10.4167 17.094 10.095 17.4463 9.68051 17.4944L9.58333 17.5H5.83333C4.50193 17.5 3.41361 16.4593 3.33757 15.1469L3.33333 15V5C3.33333 3.6686 4.3741 2.58028 5.68643 2.50424L5.83333 2.5H9.99999ZM14.7558 7.05372L17.1129 9.41075C17.4383 9.73617 17.4383 10.2638 17.1129 10.5892L14.7558 12.9462C14.4304 13.2717 13.9028 13.2717 13.5773 12.9462C13.2519 12.6208 13.2519 12.0932 13.5773 11.7677L14.5118 10.8333H9.99999C9.53974 10.8333 9.16666 10.4602 9.16666 10C9.16666 9.53975 9.53974 9.16667 9.99999 9.16667H14.5118L13.5773 8.23223C13.2519 7.9068 13.2519 7.37916 13.5773 7.05372C13.9028 6.72828 14.4304 6.72828 14.7558 7.05372Z" fill="#FE0000"/>
</svg>
