<svg width="24" height="24" viewBox="0 0 24 24" fill="none" xmlns="http://www.w3.org/2000/svg">
<path d="M7.19727 21.1504H16.1328C17.5684 21.1504 18.3301 20.3691 18.3301 18.8262V12.0977C18.3301 10.5645 17.5684 9.7832 16.1328 9.7832H7.19727C5.76172 9.7832 5 10.5645 5 12.0977V18.8262C5 20.3691 5.76172 21.1504 7.19727 21.1504ZM7.24609 19.6758C6.82617 19.6758 6.58203 19.4121 6.58203 18.9336V11.9902C6.58203 11.5117 6.82617 11.2578 7.24609 11.2578H16.084C16.5137 11.2578 16.748 11.5117 16.748 11.9902V18.9336C16.748 19.4121 16.5137 19.6758 16.084 19.6758H7.24609ZM6.70898 10.5352H8.26172V7.24414C8.26172 4.77344 9.83398 3.47461 11.6602 3.47461C13.4863 3.47461 15.0781 4.77344 15.0781 7.24414V10.5352H16.6211V7.44922C16.6211 3.77734 14.2188 2 11.6602 2C9.11133 2 6.70898 3.77734 6.70898 7.44922V10.5352Z" fill="black"/>
</svg>
