<svg width="22" height="22" viewBox="0 0 22 22" fill="none" xmlns="http://www.w3.org/2000/svg">
<path d="M8.24996 11C8.24996 11.5063 7.83955 11.9167 7.33329 11.9167C6.82703 11.9167 6.41663 11.5063 6.41663 11C6.41663 10.4937 6.82703 10.0833 7.33329 10.0833C7.83955 10.0833 8.24996 10.4937 8.24996 11Z" fill="#2D1C5B"/>
<path d="M11.9166 11C11.9166 11.5063 11.5062 11.9167 11 11.9167C10.4937 11.9167 10.0833 11.5063 10.0833 11C10.0833 10.4937 10.4937 10.0833 11 10.0833C11.5062 10.0833 11.9166 10.4937 11.9166 11Z" fill="#2D1C5B"/>
<path d="M15.5833 11C15.5833 11.5063 15.1729 11.9167 14.6666 11.9167C14.1604 11.9167 13.75 11.5063 13.75 11C13.75 10.4937 14.1604 10.0833 14.6666 10.0833C15.1729 10.0833 15.5833 10.4937 15.5833 11Z" fill="#2D1C5B"/>
<path d="M11 20.1667C16.0626 20.1667 20.1666 16.0626 20.1666 11C20.1666 5.9374 16.0626 1.83334 11 1.83334C5.93735 1.83334 1.83329 5.9374 1.83329 11C1.83329 12.4664 2.17761 13.8523 2.7898 15.0814C2.95248 15.4081 3.00663 15.7814 2.91232 16.1339L2.36634 18.1744C2.12933 19.0602 2.93972 19.8706 3.82553 19.6336L5.86606 19.0877C6.21856 18.9933 6.5919 19.0475 6.91853 19.2102C8.14763 19.8224 9.53358 20.1667 11 20.1667Z" stroke="#2D1C5B" stroke-width="1.5"/>
</svg>
