<svg width="25" height="25" viewBox="0 0 25 25" fill="none" xmlns="http://www.w3.org/2000/svg">
<path d="M10.1816 15.6496C11.67 15.5328 13.1658 15.5328 14.6542 15.6496C15.4647 15.6956 16.2716 15.7947 17.0693 15.9455C18.7954 16.2858 19.9222 16.8411 20.4052 17.7365C20.7679 18.4353 20.7679 19.2672 20.4052 19.966C19.9222 20.8613 18.8394 21.4526 17.0507 21.757C16.2539 21.9134 15.4473 22.0145 14.6366 22.0607C13.8853 22.1413 13.1332 22.1418 12.373 22.1418H11.0048C10.7186 22.106 10.4411 22.0881 10.1728 22.0881C9.36189 22.0475 8.55453 21.9483 7.75774 21.7922C6.03178 21.4698 4.90475 20.8965 4.4218 20.0012C4.23551 19.6544 4.13714 19.2669 4.13567 18.8732C4.13182 18.4771 4.22729 18.0863 4.41301 17.7365C4.88702 16.8412 6.01387 16.2589 7.75774 15.9455C8.55799 15.7926 9.36805 15.6934 10.1816 15.6496ZM12.4091 2.01288C15.4075 2.01288 17.8378 4.44669 17.8378 7.44843C17.8376 10.45 15.4074 12.883 12.4091 12.883C9.41085 12.883 6.98062 10.45 6.9804 7.44843C6.9804 4.4467 9.41071 2.01291 12.4091 2.01288Z" fill="black"/>
</svg>
