<svg width="64" height="64" viewBox="0 0 64 64" fill="none" xmlns="http://www.w3.org/2000/svg">
<path d="M11 25C11 22.2386 13.2386 20 16 20H48C50.7614 20 53 22.2386 53 25V37C53 48.598 43.598 58 32 58V58C20.402 58 11 48.598 11 37V25Z" fill="#FF1A1A"/>
<path d="M23.1985 56.0703C22.5911 55.7895 21.9994 55.4809 21.425 55.1455L30.0188 20H32.0188L23.1985 56.0703ZM19.6995 54.0205C18.5055 53.1562 17.4056 52.1701 16.4192 51.0791L24.0188 20H28.0188L19.6995 54.0205Z" fill="white"/>
<path d="M42 16C42 13.3478 40.9464 10.8043 39.0711 8.92893C37.1957 7.05357 34.6522 6 32 6C29.3478 6 26.8043 7.05357 24.9289 8.92893C23.0536 10.8043 22 13.3478 22 16" stroke="#FF1A1A" stroke-width="4" stroke-linecap="round"/>
<path d="M18 32H50C53.3137 32 56 34.6863 56 38V38C56 41.3137 53.3137 44 50 44H18V32Z" fill="#C8D1EA"/>
<circle cx="18" cy="38" r="10" fill="#C8D1EA"/>
<circle cx="18" cy="34" r="2" fill="#FF1A1A"/>
<circle cx="34" cy="38" r="2" fill="#FF1A1A"/>
<circle cx="41" cy="38" r="2" fill="#FF1A1A"/>
<circle cx="48" cy="38" r="2" fill="#FF1A1A"/>
<path d="M21.0365 43C22.1209 43 23.0344 42.0884 22.6194 41.0866C22.3681 40.48 21.9998 39.9288 21.5355 39.4645C21.0712 39.0002 20.52 38.6319 19.9134 38.3806C19.3068 38.1293 18.6566 38 18 38C17.3434 38 16.6932 38.1293 16.0866 38.3806C15.48 38.6319 14.9288 39.0002 14.4645 39.4645C14.0002 39.9288 13.6319 40.48 13.3806 41.0866C12.9656 42.0884 13.8791 43 14.9635 43L21.0365 43Z" fill="#FF1A1A"/>
</svg>
