<svg width="182" height="182" viewBox="0 0 182 182" fill="none" xmlns="http://www.w3.org/2000/svg">
<g filter="url(#filter0_dd_43_1837)">
<rect x="36.1675" y="36.1675" width="100" height="100" rx="50" fill="#FF0000"/>
<path d="M71.8184 71.247C76.6266 62.919 79.0307 58.7549 82.2036 57.4212C84.7383 56.3557 87.5953 56.3557 90.13 57.4212C93.3029 58.7549 95.707 62.919 100.515 71.247L112.167 91.4287C116.975 99.7568 119.379 103.921 118.948 107.336C118.603 110.063 117.175 112.538 114.985 114.2C112.243 116.281 107.435 116.281 97.8187 116.281H74.5149C64.8985 116.281 60.0903 116.281 57.3487 114.2C55.1586 112.538 53.7301 110.063 53.3855 107.336C52.9542 103.921 55.3583 99.7568 60.1664 91.4287L71.8184 71.247Z" fill="white"/>
<rect x="82.8843" y="72.6422" width="6.56368" height="24.1918" rx="3.28184" fill="#FF0000"/>
<rect x="82.8843" y="101.522" width="6.56416" height="6.56416" rx="3.28208" fill="#FF0000"/>
</g>
<defs>
<filter id="filter0_dd_43_1837" x="1.23978e-05" y="-1.81198e-05" width="181.77" height="181.77" filterUnits="userSpaceOnUse" color-interpolation-filters="sRGB">
<feFlood flood-opacity="0" result="BackgroundImageFix"/>
<feColorMatrix in="SourceAlpha" type="matrix" values="0 0 0 0 0 0 0 0 0 0 0 0 0 0 0 0 0 0 127 0" result="hardAlpha"/>
<feOffset dx="4.7175" dy="4.7175"/>
<feGaussianBlur stdDeviation="8.25562"/>
<feComposite in2="hardAlpha" operator="out"/>
<feColorMatrix type="matrix" values="0 0 0 0 0 0 0 0 0 0 0 0 0 0 0 0 0 0 0.16 0"/>
<feBlend mode="normal" in2="BackgroundImageFix" result="effect1_dropShadow_43_1837"/>
<feColorMatrix in="SourceAlpha" type="matrix" values="0 0 0 0 0 0 0 0 0 0 0 0 0 0 0 0 0 0 127 0" result="hardAlpha"/>
<feOffset dx="4.7175" dy="4.7175"/>
<feGaussianBlur stdDeviation="20.4425"/>
<feComposite in2="hardAlpha" operator="out"/>
<feColorMatrix type="matrix" values="0 0 0 0 0 0 0 0 0 0 0 0 0 0 0 0 0 0 0.26 0"/>
<feBlend mode="normal" in2="effect1_dropShadow_43_1837" result="effect2_dropShadow_43_1837"/>
<feBlend mode="normal" in="SourceGraphic" in2="effect2_dropShadow_43_1837" result="shape"/>
</filter>
</defs>
</svg>
